<svg width="84" height="120" viewBox="0 0 84 120" fill="none" xmlns="http://www.w3.org/2000/svg">
<path d="M0.632812 16C0.632812 10.3995 0.632812 7.59921 1.72275 5.46009C2.68148 3.57847 4.21129 2.04867 6.09291 1.08993C8.23202 0 11.0323 0 16.6328 0H84.1294V120H16.6328C11.0323 120 8.23202 120 6.09291 118.91C4.21129 117.951 2.68148 116.422 1.72275 114.54C0.632812 112.401 0.632812 109.601 0.632812 104V16Z" fill="#151522"/>
<path d="M62.7961 36.1567C62.7851 32.3744 61.2886 28.7501 58.6333 26.0756C55.9781 23.4011 52.38 21.8937 48.625 21.8827H25.0723C24.3314 21.8827 22.6765 21.8076 21.9663 21.9202L29.3686 31.9197H48.4124C49.0009 31.9065 49.586 32.0119 50.1335 32.2296C50.6809 32.4473 51.1797 32.7729 51.6005 33.1875C52.0213 33.602 52.3557 34.097 52.584 34.6435C52.8122 35.19 52.9298 35.7769 52.9298 36.3697C52.9298 36.9626 52.8122 37.5495 52.584 38.096C52.3557 38.6424 52.0213 39.1375 51.6005 39.552C51.1797 39.9665 50.6809 40.2922 50.1335 40.5099C49.586 40.7276 49.0009 40.8329 48.4124 40.8197H35.2146L41.5274 50.4284L48.0705 60.3882L60.1044 60.5295L53.0528 49.7109C53.1164 49.6888 53.1843 49.6733 53.2501 49.6491C56.0327 48.673 58.4457 46.8507 60.1557 44.4337C61.8657 42.0168 62.7883 39.1245 62.7961 36.1567Z" fill="white"/>
<rect x="31.8364" y="88.005" width="21.0897" height="18.7437" rx="9.37183" fill="#6979F8"/>
<path d="M40.6892 100.129L43.0034 93.8519H42.1813L40.3369 99.1154H40.2673L38.4229 93.8519H37.6008L39.915 100.129H40.6892ZM45.5047 100.129H46.2876V93.8519H45.509L43.8386 95.0525V95.879L45.4351 94.7219H45.5047V100.129Z" fill="white"/>
</svg>
