<svg width="151" height="36" viewBox="0 0 151 36" fill="none" xmlns="http://www.w3.org/2000/svg">
<path fill-rule="evenodd" clip-rule="evenodd" d="M75.6109 3.22974C75.8481 3.22974 76.0829 3.27644 76.302 3.36718C76.5211 3.45793 76.7201 3.59094 76.8878 3.75863C77.0555 3.92631 77.1885 4.12537 77.2792 4.34446C77.37 4.56354 77.4167 4.79836 77.4167 5.0355C77.4167 5.39264 77.3108 5.74176 77.1124 6.03872C76.914 6.33568 76.6319 6.56713 76.302 6.7038C75.972 6.84047 75.6089 6.87623 75.2587 6.80656C74.9084 6.73688 74.5866 6.5649 74.3341 6.31237C74.0815 6.05983 73.9096 5.73807 73.8399 5.38779C73.7702 5.0375 73.806 4.67443 73.9426 4.34447C74.0793 4.01451 74.3107 3.73248 74.6077 3.53406C74.9047 3.33564 75.2538 3.22974 75.6109 3.22974Z" fill="white"/>
<path fill-rule="evenodd" clip-rule="evenodd" d="M75.611 3.87036C75.92 3.87036 76.2164 3.99312 76.4349 4.21164C76.6535 4.43016 76.7762 4.72654 76.7762 5.03557C76.7762 5.26603 76.7079 5.49131 76.5798 5.68293C76.4518 5.87454 76.2698 6.02389 76.0569 6.11208C75.844 6.20027 75.6097 6.22335 75.3837 6.17839C75.1577 6.13343 74.95 6.02246 74.7871 5.8595C74.6241 5.69654 74.5132 5.48892 74.4682 5.26289C74.4232 5.03686 74.4463 4.80258 74.5345 4.58966C74.6227 4.37675 74.772 4.19477 74.9637 4.06674C75.1553 3.9387 75.3806 3.87036 75.611 3.87036Z" fill="#FFC107"/>
<path fill-rule="evenodd" clip-rule="evenodd" d="M88.6477 21.7137V23.905H96.2176V21.7137H88.6477Z" fill="white"/>
<path fill-rule="evenodd" clip-rule="evenodd" d="M88.6477 25.897V27.8891H94.8232V25.897H88.6477Z" fill="white"/>
<path fill-rule="evenodd" clip-rule="evenodd" d="M77.2928 26.0963V17.7295H74.9023V26.0963H77.2928Z" fill="white"/>
<path fill-rule="evenodd" clip-rule="evenodd" d="M59.1648 21.7137V23.905H66.7347V21.7137H59.1648Z" fill="white"/>
<path fill-rule="evenodd" clip-rule="evenodd" d="M59.1648 25.897V27.8891H65.3403V25.897H59.1648Z" fill="white"/>
<path fill-rule="evenodd" clip-rule="evenodd" d="M46.6271 30.2798C45.0334 29.0845 46.6271 30.2798 45.0334 29.0845C44.4379 29.5209 43.9273 30.8774 41.6469 30.8774C39.745 30.8774 38.302 29.363 38.2604 27.4908H35.8699C35.8699 33.1284 43.592 35.2441 46.6271 30.2798Z" fill="white"/>
<path fill-rule="evenodd" clip-rule="evenodd" d="M35.8699 26.8932H38.2604C38.6218 22.5498 43.7313 23.0635 44.9295 25.4483C46.7485 24.4373 44.9295 25.4483 46.7485 24.4373C45.0123 19.9352 35.8699 20.0737 35.8699 26.8932Z" fill="white"/>
<path fill-rule="evenodd" clip-rule="evenodd" d="M0 24.5027V32.8694H2.19127V24.5027H0Z" fill="white"/>
<path fill-rule="evenodd" clip-rule="evenodd" d="M77.8903 9.36278H73.3085C72.05 4.06916 73.3085 9.36278 72.05 4.06916C72.9101 2.19127 72.05 4.06916 72.9101 2.19127H78.2887C79.1354 4.07057 78.2887 2.19127 79.1354 4.07057C77.8903 9.36278 79.1354 4.07057 77.8903 9.36278ZM77.2777 20.5184C77.9152 20.1956 78.5 19.9001 78.8864 19.3232C77.2927 17.8341 78.8864 19.3232 77.2927 17.8341L74.9419 18.3272C72.1934 17.6588 73.6927 13.1528 76.695 14.7414V11.5541H79.4839C81.2867 4.07498 79.4839 11.554 81.2867 4.07497C79.4839 9.46581e-07 81.2867 4.07497 79.4839 0H71.7149C69.8933 4.06893 71.7149 -6.31054e-07 69.8933 4.06893C71.7149 11.554 69.8933 4.06893 71.7149 11.5541H74.5038C74.5049 11.9499 74.5038 11.554 74.495 12.3123C74.4936 12.4343 71.4677 12.9198 71.2194 16.0579C71.0411 18.3122 72.183 20.1878 74.9022 20.7177C74.9022 22.759 76.5666 20.0544 77.2777 20.5184Z" fill="white"/>
<path fill-rule="evenodd" clip-rule="evenodd" d="M140.606 32.8729C136.259 27.0924 140.606 32.8694 136.259 27.0924C136.552 25.8344 138.899 23.5001 139.844 21.7137C137.883 21.7137 139.844 21.7137 137.181 21.7137C133.47 26.8932 137.181 21.7137 133.47 26.8932L137.782 32.8694C137.782 32.8694 140.394 32.8694 142.833 32.8694L146.963 23.3564C145.87 20.9443 147.091 23.6396 146.219 21.7137H145.223C140.606 32.8729 145.223 21.5145 140.606 32.8729Z" fill="white"/>
<path fill-rule="evenodd" clip-rule="evenodd" d="M25.252 23.7971C25.86 23.6712 26.6341 23.7058 27.4907 23.7058V27.2915C26.6652 27.2915 25.6899 27.3978 24.9651 27.1906C23.3039 26.7157 23.6168 24.136 25.252 23.7971ZM27.4907 29.4828V32.8693H29.682V21.7137H25.2995C20.807 21.527 18.6341 29.8189 27.4907 29.4828Z" fill="white"/>
<path fill-rule="evenodd" clip-rule="evenodd" d="M68.1294 32.8694H76.4962V35.2599H78.8867C78.8867 32.5079 79.3008 30.6781 78.289 30.6781H70.5199V21.7137H68.1294V32.8694Z" fill="white"/>
<path fill-rule="evenodd" clip-rule="evenodd" d="M118.928 30.9644L118.932 33.0856L119.712 33.0873C126.298 26.2955 119.712 33.0873 126.298 26.2955V32.8694H128.689L128.689 21.7137C128.16 21.7227 128.81 21.7198 127.871 21.7275C118.927 31.1637 118.927 30.9645 118.927 30.9645L118.928 30.9644Z" fill="white"/>
<path fill-rule="evenodd" clip-rule="evenodd" d="M0 23.7058C1.7088 23.7058 2.84356 23.6618 3.59279 23.7075C5.44679 23.7075 5.57664 25.8333 3.80003 25.8938L2.78891 25.8971V28.0884C3.66019 28.0884 4.30356 28.0883 4.75064 28.1841C5.88794 28.4274 5.93931 30.3745 4.78824 30.611C4.10772 30.7509 4.0853 30.6781 2.78891 30.6781V32.8694C4.97183 32.8694 7.96832 32.881 7.96832 29.2836C7.96832 28.2839 7.15023 27.4236 6.37464 27.0924C6.81003 26.5726 7.37069 25.8367 7.37069 24.901C7.37069 23.7191 6.96641 22.9604 6.32106 22.4771C4.8304 21.3608 2.05324 21.7137 0 21.7137V23.7058Z" fill="white"/>
<path fill-rule="evenodd" clip-rule="evenodd" d="M48.0093 23.905H54.7823V32.8694H57.1728V21.7137H48.0093V23.905Z" fill="white"/>
<path fill-rule="evenodd" clip-rule="evenodd" d="M114.744 25.8971H110.561V28.0884H114.744V32.8694H117.134V21.7137H114.744V25.8971Z" fill="white"/>
<path fill-rule="evenodd" clip-rule="evenodd" d="M96.616 32.8694H99.4049C106.377 21.7137 99.4049 32.8694 106.377 21.7137H103.588C103.426 22.4118 97.5843 31.4234 96.616 32.8694Z" fill="white"/>
<path fill-rule="evenodd" clip-rule="evenodd" d="M20.3192 30.2798C18.7256 29.0845 20.3192 30.2798 18.7256 29.0845C18.13 29.5209 17.6194 30.8774 15.3391 30.8774C13.4371 30.8774 11.9942 29.363 11.9525 27.4908H9.56201C9.56201 33.1284 17.2841 35.2441 20.3192 30.2798Z" fill="white"/>
<path fill-rule="evenodd" clip-rule="evenodd" d="M9.56201 26.8932H11.9525C12.3139 22.5498 17.4235 23.0635 18.6216 25.4483C20.4406 24.4373 18.6216 25.4483 20.4406 24.4373C18.7044 19.9352 9.56201 20.0737 9.56201 26.8932Z" fill="white"/>
<path fill-rule="evenodd" clip-rule="evenodd" d="M130.681 32.8694H133.071V21.7137H130.681V32.8694Z" fill="white"/>
<path fill-rule="evenodd" clip-rule="evenodd" d="M107.573 32.8694H109.764V21.7137H107.573V32.8694Z" fill="white"/>
<path fill-rule="evenodd" clip-rule="evenodd" d="M147.016 29.4828H145.024C144.227 31.4749 145.024 29.4828 144.227 31.4749H148.012C148.609 32.8693 148.012 31.4749 148.609 32.8693H151C147.414 24.3034 150.897 32.6918 147.312 24.1259C146.084 26.9711 147.292 24.1711 146.084 26.9711C147.016 29.4828 146.169 27.1489 147.016 29.4828Z" fill="white"/>
<path fill-rule="evenodd" clip-rule="evenodd" d="M78.2888 23.905H87.6516V21.7137H78.2888V23.905Z" fill="white"/>
<path fill-rule="evenodd" clip-rule="evenodd" d="M48.0093 32.8694H50.3998V24.5027H48.0093V32.8694Z" fill="white"/>
<path fill-rule="evenodd" clip-rule="evenodd" d="M81.8745 32.8694H84.265V24.5027H81.8745V32.8694Z" fill="white"/>
<path fill-rule="evenodd" clip-rule="evenodd" d="M88.6477 32.8694H96.4169V30.6781H88.6477V32.8694Z" fill="white"/>
<path fill-rule="evenodd" clip-rule="evenodd" d="M59.1648 32.8694H66.9339V30.6781H59.1648V32.8694Z" fill="white"/>
<path fill-rule="evenodd" clip-rule="evenodd" d="M118.927 29.6821C121.318 27.2916 118.927 29.6821 121.318 27.2916V21.7137H118.927V29.6821Z" fill="white"/>
<path fill-rule="evenodd" clip-rule="evenodd" d="M101.995 29.8813C103.987 32.8693 101.995 29.8813 103.987 32.8693H106.576C103.389 27.8892 106.576 32.8693 103.389 27.8892C101.995 29.8813 103.389 27.8892 101.995 29.8813Z" fill="white"/>
<path fill-rule="evenodd" clip-rule="evenodd" d="M99.8034 26.4948C101.198 24.5027 99.8034 26.4947 101.198 24.5027C99.6041 21.7137 101.198 24.5027 99.6041 21.7137H97.0144C99.8034 26.4948 97.0144 21.7137 99.8034 26.4948Z" fill="white"/>
<path fill-rule="evenodd" clip-rule="evenodd" d="M20.7178 32.8693H23.3075C24.9011 30.0804 23.3075 32.8693 24.9011 30.0804C22.5106 29.682 24.9011 30.0804 22.5106 29.682C20.7178 32.8693 22.5106 29.682 20.7178 32.8693Z" fill="white"/>
<path fill-rule="evenodd" clip-rule="evenodd" d="M27.4907 32.8694V21.7137H29.682V32.8694H27.4907Z" fill="white"/>
<path fill-rule="evenodd" clip-rule="evenodd" d="M68.1294 32.8694V30.6781H78.9648V32.8694H68.1294Z" fill="white"/>
<path fill-rule="evenodd" clip-rule="evenodd" d="M78.9647 32.5853V35.2598H76.4961V32.5853H78.9647Z" fill="white"/>
<path fill-rule="evenodd" clip-rule="evenodd" d="M88.6477 32.8694H96.4169V30.6781H88.6477V32.8694Z" fill="white"/>
<path fill-rule="evenodd" clip-rule="evenodd" d="M74.9023 18.9149V17.7295H77.2928L74.9023 18.9149Z" fill="#FFC107"/>
<path fill-rule="evenodd" clip-rule="evenodd" d="M74.9023 20.6587V19.7474L77.2928 18.5376V19.4253L74.9023 20.6587Z" fill="#FFC107"/>
<path fill-rule="evenodd" clip-rule="evenodd" d="M74.9023 22.4137V21.5024L77.2928 20.2926V21.1802L74.9023 22.4137Z" fill="#FFC107"/>
<path fill-rule="evenodd" clip-rule="evenodd" d="M74.9023 24.1686V23.2573L77.2928 22.0475V22.9351L74.9023 24.1686Z" fill="#FFC107"/>
<path fill-rule="evenodd" clip-rule="evenodd" d="M74.9023 25.9236V25.0123L77.2928 23.8025V24.6901L74.9023 25.9236Z" fill="#FFC107"/>
<path fill-rule="evenodd" clip-rule="evenodd" d="M76.228 26.0963L77.2929 25.5574V26.0963H76.228Z" fill="#FFC107"/>
</svg>
