<svg width="175" height="41" viewBox="0 0 175 41" fill="none" xmlns="http://www.w3.org/2000/svg">
<path fill-rule="evenodd" clip-rule="evenodd" d="M87.6286 3.7431C87.9035 3.7431 88.1756 3.79723 88.4295 3.9024C88.6834 4.00757 88.9141 4.16172 89.1085 4.35605C89.3028 4.55039 89.457 4.78109 89.5621 5.035C89.6673 5.2889 89.7214 5.56104 89.7214 5.83587C89.7214 6.24978 89.5987 6.65439 89.3687 6.99855C89.1388 7.3427 88.8119 7.61094 88.4295 7.76934C88.0471 7.92773 87.6263 7.96917 87.2204 7.88842C86.8144 7.80768 86.4415 7.60836 86.1488 7.31569C85.8562 7.02301 85.6569 6.65011 85.5761 6.24415C85.4954 5.8382 85.5368 5.41741 85.6952 5.03501C85.8536 4.6526 86.1218 4.32575 86.466 4.0958C86.8101 3.86584 87.2147 3.7431 87.6286 3.7431Z" fill="#333333"/>
<path fill-rule="evenodd" clip-rule="evenodd" d="M87.6287 4.48547C87.9869 4.48547 88.3304 4.62774 88.5836 4.881C88.8369 5.13425 88.9791 5.47773 88.9791 5.83588C88.9791 6.10297 88.8999 6.36405 88.7516 6.58613C88.6032 6.8082 88.3923 6.98129 88.1455 7.0835C87.8988 7.1857 87.6272 7.21245 87.3653 7.16035C87.1033 7.10824 86.8627 6.97962 86.6738 6.79077C86.485 6.60191 86.3564 6.36129 86.3043 6.09933C86.2522 5.83738 86.2789 5.56586 86.3811 5.3191C86.4833 5.07235 86.6564 4.86144 86.8785 4.71306C87.1006 4.56467 87.3616 4.48547 87.6287 4.48547Z" fill="#FFC107"/>
<path fill-rule="evenodd" clip-rule="evenodd" d="M102.738 25.1649V27.7044H111.511V25.1649H102.738Z" fill="#333333"/>
<path fill-rule="evenodd" clip-rule="evenodd" d="M102.738 30.0131V32.3218H109.895V30.0131H102.738Z" fill="#333333"/>
<path fill-rule="evenodd" clip-rule="evenodd" d="M89.5778 30.244V20.5474H86.8074V30.244H89.5778Z" fill="#333333"/>
<path fill-rule="evenodd" clip-rule="evenodd" d="M68.5686 25.1649V27.7044H77.3417V25.1649H68.5686Z" fill="#333333"/>
<path fill-rule="evenodd" clip-rule="evenodd" d="M68.5686 30.0131V32.3218H75.7256V30.0131H68.5686Z" fill="#333333"/>
<path fill-rule="evenodd" clip-rule="evenodd" d="M54.038 35.0923C52.1911 33.707 54.038 35.0923 52.1911 33.707C51.5008 34.2128 50.9091 35.7849 48.2663 35.7849C46.0621 35.7849 44.3898 34.0298 44.3415 31.8601H41.571C41.571 38.3937 50.5205 40.8456 54.038 35.0923Z" fill="#333333"/>
<path fill-rule="evenodd" clip-rule="evenodd" d="M41.571 31.1675H44.3415C44.7604 26.1338 50.682 26.7292 52.0706 29.493C54.1787 28.3213 52.0706 29.493 54.1787 28.3213C52.1666 23.1036 41.571 23.2642 41.571 31.1675Z" fill="#333333"/>
<path fill-rule="evenodd" clip-rule="evenodd" d="M0 28.3971V38.0936H2.53955V28.3971H0Z" fill="#333333"/>
<path fill-rule="evenodd" clip-rule="evenodd" d="M90.2705 10.8509H84.9604C83.5019 4.71592 84.9604 10.8509 83.5019 4.71591C84.4987 2.53955 83.5019 4.71591 84.4987 2.53955H90.7322C91.7135 4.71754 90.7322 2.53956 91.7135 4.71754C90.2705 10.8509 91.7135 4.71755 90.2705 10.8509ZM89.5605 23.7796C90.2993 23.4055 90.9771 23.063 91.4248 22.3944C89.5779 20.6686 91.4248 22.3944 89.5779 20.6686L86.8534 21.2401C83.6681 20.4655 85.4057 15.2433 88.8852 17.0844V13.3905H92.1174C94.2067 4.72266 92.1174 13.3905 94.2067 4.72265C92.1174 1.09703e-06 94.2067 4.72265 92.1174 0H83.1135C81.0024 4.71564 83.1135 -7.31354e-07 81.0024 4.71564C83.1135 13.3905 81.0024 4.71565 83.1135 13.3905H86.3457C86.3471 13.8492 86.3457 13.3905 86.3355 14.2692C86.3339 14.4106 82.8271 14.9732 82.5394 18.6101C82.3326 21.2227 83.656 23.3964 86.8074 24.0105C86.8074 26.3764 88.7364 23.2418 89.5605 23.7796Z" fill="#333333"/>
<path fill-rule="evenodd" clip-rule="evenodd" d="M162.953 38.0977C157.916 31.3984 162.954 38.0936 157.916 31.3984C158.255 29.9404 160.976 27.2351 162.071 25.1649C159.798 25.1649 162.071 25.1649 158.985 25.1649C154.683 31.1675 158.985 25.1649 154.683 31.1675L159.681 38.0936C159.681 38.0936 162.708 38.0936 165.534 38.0936L170.321 27.0686C169.055 24.2731 170.47 27.3968 169.459 25.1649H168.305C162.953 38.0977 168.305 24.934 162.953 38.0977Z" fill="#333333"/>
<path fill-rule="evenodd" clip-rule="evenodd" d="M29.2657 27.5794C29.9702 27.4335 30.8674 27.4736 31.8602 27.4736V31.6292C30.9034 31.6292 29.7731 31.7524 28.9331 31.5123C27.0079 30.9619 27.3705 27.9722 29.2657 27.5794ZM31.8602 34.1688V38.0936H34.3997V25.1649H29.3206C24.1141 24.9485 21.5958 34.5583 31.8602 34.1688Z" fill="#333333"/>
<path fill-rule="evenodd" clip-rule="evenodd" d="M78.9578 38.0936H88.6544V40.864H91.4248C91.4248 37.6746 91.9047 35.554 90.7322 35.554H81.7282V25.1649H78.9578V38.0936Z" fill="#333333"/>
<path fill-rule="evenodd" clip-rule="evenodd" d="M137.83 35.8859L137.835 38.3443L138.739 38.3462C146.372 30.4749 138.739 38.3462 146.372 30.4749V38.0936H149.143L149.142 25.1649C148.529 25.1753 149.283 25.1719 148.195 25.1808C137.83 36.1168 137.83 35.8859 137.83 35.8859L137.83 35.8859Z" fill="#333333"/>
<path fill-rule="evenodd" clip-rule="evenodd" d="M0 27.4736C1.9804 27.4736 3.29552 27.4226 4.16383 27.4755C6.31251 27.4755 6.46299 29.9392 4.40401 30.0093L3.23218 30.0131V32.5527C4.24194 32.5527 4.98757 32.5527 5.5057 32.6637C6.82377 32.9456 6.88331 35.2022 5.54928 35.4763C4.7606 35.6385 4.73462 35.5541 3.23218 35.5541V38.0936C5.76205 38.0936 9.23481 38.1072 9.23481 33.938C9.23481 32.7793 8.28669 31.7823 7.38783 31.3984C7.89242 30.796 8.54219 29.9432 8.54219 28.8588C8.54219 27.489 8.07365 26.6097 7.32573 26.0495C5.59815 24.7559 2.37958 25.1649 0 25.1649V27.4736Z" fill="#333333"/>
<path fill-rule="evenodd" clip-rule="evenodd" d="M55.6399 27.7044H63.4894V38.0936H66.2599V25.1649H55.6399V27.7044Z" fill="#333333"/>
<path fill-rule="evenodd" clip-rule="evenodd" d="M132.981 30.0131H128.133V32.5527H132.981V38.0936H135.752V25.1649H132.981V30.0131Z" fill="#333333"/>
<path fill-rule="evenodd" clip-rule="evenodd" d="M111.972 38.0936H115.204C123.285 25.1649 115.204 38.0936 123.285 25.1649H120.053C119.864 25.9738 113.094 36.4178 111.972 38.0936Z" fill="#333333"/>
<path fill-rule="evenodd" clip-rule="evenodd" d="M23.5488 35.0923C21.7018 33.707 23.5488 35.0923 21.7018 33.707C21.0116 34.2128 20.4198 35.7849 17.777 35.7849C15.5728 35.7849 13.9005 34.0298 13.8522 31.8601H11.0818C11.0818 38.3937 20.0313 40.8456 23.5488 35.0923Z" fill="#333333"/>
<path fill-rule="evenodd" clip-rule="evenodd" d="M11.0818 31.1675H13.8522C14.2711 26.1338 20.1927 26.7292 21.5813 29.493C23.6894 28.3213 21.5813 29.493 23.6894 28.3213C21.6773 23.1036 11.0818 23.2642 11.0818 31.1675Z" fill="#333333"/>
<path fill-rule="evenodd" clip-rule="evenodd" d="M151.451 38.0936H154.222V25.1649H151.451V38.0936Z" fill="#333333"/>
<path fill-rule="evenodd" clip-rule="evenodd" d="M124.67 38.0936H127.21V25.1649H124.67V38.0936Z" fill="#333333"/>
<path fill-rule="evenodd" clip-rule="evenodd" d="M170.383 34.1689H168.074C167.15 36.4775 168.074 34.1689 167.15 36.4775H171.537C172.23 38.0936 171.537 36.4775 172.23 38.0936H175C170.844 28.1662 174.881 37.8879 170.726 27.9604C169.303 31.2579 170.703 28.0129 169.303 31.2579C170.383 34.1689 169.402 31.464 170.383 34.1689Z" fill="#333333"/>
<path fill-rule="evenodd" clip-rule="evenodd" d="M90.7322 27.7044H101.583V25.1649H90.7322V27.7044Z" fill="#333333"/>
<path fill-rule="evenodd" clip-rule="evenodd" d="M55.6399 38.0936H58.4103V28.3971H55.6399V38.0936Z" fill="#333333"/>
<path fill-rule="evenodd" clip-rule="evenodd" d="M94.8879 38.0936H97.6584V28.3971H94.8879V38.0936Z" fill="#333333"/>
<path fill-rule="evenodd" clip-rule="evenodd" d="M102.738 38.0936H111.742V35.5541H102.738V38.0936Z" fill="#333333"/>
<path fill-rule="evenodd" clip-rule="evenodd" d="M68.5686 38.0936H77.5726V35.5541H68.5686V38.0936Z" fill="#333333"/>
<path fill-rule="evenodd" clip-rule="evenodd" d="M137.83 34.3997C140.6 31.6292 137.83 34.3997 140.6 31.6292V25.1649H137.83V34.3997Z" fill="#333333"/>
<path fill-rule="evenodd" clip-rule="evenodd" d="M118.206 34.6306C120.515 38.0936 118.206 34.6306 120.515 38.0936H123.516C119.822 32.3219 123.516 38.0936 119.822 32.3219C118.206 34.6306 119.822 32.3219 118.206 34.6306Z" fill="#333333"/>
<path fill-rule="evenodd" clip-rule="evenodd" d="M115.666 30.7058C117.282 28.397 115.666 30.7058 117.282 28.397C115.435 25.1649 117.282 28.397 115.435 25.1649H112.434C115.666 30.7058 112.434 25.1649 115.666 30.7058Z" fill="#333333"/>
<path fill-rule="evenodd" clip-rule="evenodd" d="M24.0105 38.0936H27.0118C28.8588 34.8615 27.0118 38.0936 28.8588 34.8614C26.0883 34.3997 28.8588 34.8614 26.0883 34.3997C24.0105 38.0936 26.0883 34.3997 24.0105 38.0936Z" fill="#333333"/>
<path fill-rule="evenodd" clip-rule="evenodd" d="M31.8601 38.0936V25.1649H34.3997V38.0936H31.8601Z" fill="#333333"/>
<path fill-rule="evenodd" clip-rule="evenodd" d="M78.9578 38.0936V35.5541H91.5153V38.0936H78.9578Z" fill="#333333"/>
<path fill-rule="evenodd" clip-rule="evenodd" d="M91.5152 37.7645V40.8641H88.6543V37.7645H91.5152Z" fill="#333333"/>
<path fill-rule="evenodd" clip-rule="evenodd" d="M102.738 38.0936H111.742V35.5541H102.738V38.0936Z" fill="#333333"/>
<path fill-rule="evenodd" clip-rule="evenodd" d="M86.8074 21.9212V20.5474H89.5778L86.8074 21.9212Z" fill="#FFC107"/>
<path fill-rule="evenodd" clip-rule="evenodd" d="M86.8074 23.9423V22.8862L89.5778 21.4841V22.5128L86.8074 23.9423Z" fill="#FFC107"/>
<path fill-rule="evenodd" clip-rule="evenodd" d="M86.8074 25.9762V24.92L89.5778 23.5179V24.5467L86.8074 25.9762Z" fill="#FFC107"/>
<path fill-rule="evenodd" clip-rule="evenodd" d="M86.8074 28.01V26.9539L89.5778 25.5518V26.5805L86.8074 28.01Z" fill="#FFC107"/>
<path fill-rule="evenodd" clip-rule="evenodd" d="M86.8074 30.0439V28.9877L89.5778 27.5856V28.6144L86.8074 30.0439Z" fill="#FFC107"/>
<path fill-rule="evenodd" clip-rule="evenodd" d="M88.3438 30.2441L89.5779 29.6195V30.2441H88.3438Z" fill="#FFC107"/>
</svg>
